<?xml version="1.0" encoding="utf-8"?>
<!-- Generator: Adobe Illustrator 25.0.0, SVG Export Plug-In . SVG Version: 6.00 Build 0)  -->
<svg version="1.1" id="SVGLogo" xmlns="http://www.w3.org/2000/svg" xmlns:xlink="http://www.w3.org/1999/xlink" x="0px" y="0px"
	 viewBox="0 0 140 22" style="enable-background:new 0 0 140 22;" xml:space="preserve">
<style type="text/css">
	.st0{fill:url(#SVGID_1_);}
</style>
<linearGradient id="SVGID_1_" gradientUnits="userSpaceOnUse" x1="9.488500e-02" y1="11.0188" x2="139.9234" y2="11.0188">
	<stop  offset="0" style="stop-color:#FF194D"/>
	<stop  offset="0.1545" style="stop-color:#FF8400"/>
	<stop  offset="0.166" style="stop-color:#FF8E06"/>
	<stop  offset="0.2082" style="stop-color:#FFB01A"/>
	<stop  offset="0.2433" style="stop-color:#FFC527"/>
	<stop  offset="0.2665" style="stop-color:#FFCC2B"/>
	<stop  offset="0.2872" style="stop-color:#FACB2B"/>
	<stop  offset="0.3129" style="stop-color:#EACA29"/>
	<stop  offset="0.3411" style="stop-color:#D1C727"/>
	<stop  offset="0.3712" style="stop-color:#AEC424"/>
	<stop  offset="0.4024" style="stop-color:#82BF21"/>
	<stop  offset="0.4085" style="stop-color:#78BE20"/>
	<stop  offset="0.593" style="stop-color:#00C1D5"/>
	<stop  offset="0.8059" style="stop-color:#5B72FF"/>
	<stop  offset="1" style="stop-color:#A357FF"/>
</linearGradient>
<path class="st0" d="M60.2,20.1L54,3.1c-0.1-0.2-0.2-0.5-0.2-0.8c0-0.7,0.6-1.4,1.5-1.4c0.8,0,1.3,0.5,1.5,1.2L62,16.7L67.1,2
	c0.2-0.7,0.7-1.2,1.5-1.2h0.2c0.8,0,1.3,0.5,1.6,1.2l5.1,14.7L80.5,2c0.2-0.6,0.6-1.2,1.4-1.2c0.9,0,1.5,0.7,1.5,1.4
	c0,0.3-0.1,0.6-0.2,0.8l-6.2,17.1c-0.3,0.9-0.9,1.4-1.6,1.4h-0.1c-0.8,0-1.4-0.5-1.6-1.4l-5-14.5l-5.1,14.5
	c-0.3,0.9-0.9,1.4-1.6,1.4h-0.1C61.1,21.5,60.5,21,60.2,20.1 M104.8,19.9c0,0.9,0.7,1.5,1.5,1.5c0.9,0,1.5-0.7,1.5-1.5v-6.9
	c0-5.8,3.2-8.8,7.1-9.2c0.8-0.1,1.3-0.7,1.3-1.5c0-0.9-0.6-1.5-1.5-1.5c-2.2,0-5.5,1.6-7,4.9V2.3c0-0.9-0.7-1.5-1.5-1.5
	c-0.8,0-1.5,0.7-1.5,1.5V19.9z M125.9,21.6c3.4,0,5.6-1.2,7.5-3c0.3-0.3,0.5-0.6,0.5-1c0-0.7-0.6-1.3-1.3-1.3
	c-0.3,0-0.6,0.2-0.8,0.3c-1.5,1.4-3.3,2.3-5.7,2.3c-3.5,0-6.5-2.4-7-6.8h14.3c0.7,0,1.4-0.6,1.4-1.4c0-5.3-3.3-10.1-9.2-10.1
	c-5.5,0-9.5,4.6-9.5,10.4v0.1C116,17.4,120.5,21.6,125.9,21.6 M119,10.1c0.4-3.9,3-6.8,6.4-6.8c3.9,0,6,3.2,6.3,6.8H119z M83.5,15.4
	c0,4.1,3.8,6.3,7.5,6.3c3.5,0,5.9-1.6,7.3-3.5v1.9c0,0.8,0.6,1.4,1.4,1.4c0.8,0,1.4-0.6,1.4-1.5V8.9c0-2.6-0.7-4.5-2.1-5.9
	c-1.5-1.5-3.7-2.2-6.5-2.2c-2.6,0-4.1,0.3-6,1.1c-0.5,0.2-0.8,0.6-0.8,1.2c0,0.7,0.6,1.3,1.3,1.3c0.1,0,0.3,0,0.5-0.1
	c1.5-0.7,2.7-0.9,4.7-0.9c3.8,0,6,1.9,6,5.5v0.7c-1.8-0.5-3.6-0.9-6.2-0.9C87,8.8,83.5,11,83.5,15.4L83.5,15.4 M98.3,13.8
	c0,3.2-3,5.5-6.7,5.5c-2.7,0-5.1-1.5-5.1-4v-0.1c0-2.5,2.1-4.2,5.9-4.2c2.5,0,4.4,0.4,5.9,0.9V13.8 M5.6,2.1C4.9,0.6,3.3,0,1.8,0.6
	C0.3,1.3-0.3,3,0.4,4.5l6.4,13.9c1,2.2,2.1,3.3,4.1,3.3c2.1,0,3-1.2,4.1-3.3c0,0,5.6-12.1,5.6-12.3c0.1-0.1,0.2-0.5,0.8-0.5
	c0.5,0,0.9,0.4,0.9,0.9v11.9c0,1.8,1,3.3,3,3.3c1.9,0,3-1.5,3-3.3V8.6c0-1.9,1.3-3.1,3.2-3.1c1.8,0,3,1.3,3,3.1v9.7
	c0,1.8,1,3.3,3,3.3c2,0,3-1.5,3-3.3V8.6c0-1.9,1.3-3.1,3.2-3.1c1.8,0,3,1.3,3,3.1v9.7c0,1.8,1,3.3,3,3.3c1.9,0,3-1.5,3-3.3V7.3
	c0-4.1-3.3-6.9-7.2-6.9c-3.9,0-6.4,2.7-6.4,2.7c-1.3-1.7-3.1-2.7-6.2-2.7c-3.2,0-6,2.7-6,2.7c-1.3-1.7-3.5-2.7-5.4-2.7
	c-2.9,0-5.1,1.3-6.5,4.4l-4.1,9.6L5.6,2.1z M134.9,3.3c0,1.4,1.1,2.5,2.5,2.5c1.4,0,2.5-1.1,2.5-2.5v0c0-1.4-1.1-2.5-2.5-2.5
	C136,0.7,134.9,1.9,134.9,3.3L134.9,3.3 M139.4,3.3c0,1.1-0.9,2-2,2c-1.2,0-2-0.9-2-2v0c0-1.1,0.9-2,2-2
	C138.6,1.2,139.4,2.1,139.4,3.3L139.4,3.3 M136.5,4.2c0,0.1,0.1,0.3,0.3,0.3c0.2,0,0.3-0.1,0.3-0.3V3.6h0.4l0.5,0.7
	c0.1,0.1,0.1,0.1,0.3,0.1c0.1,0,0.3-0.1,0.3-0.2c0-0.1,0-0.1-0.1-0.2L138,3.5c0.3-0.1,0.5-0.4,0.5-0.7v0c0-0.2-0.1-0.4-0.2-0.5
	c-0.2-0.2-0.4-0.2-0.7-0.2h-0.8c-0.1,0-0.3,0.1-0.3,0.3V4.2z M137,3.2V2.5h0.5c0.3,0,0.4,0.1,0.4,0.3v0c0,0.2-0.1,0.3-0.4,0.3H137z"
	/>
</svg>
