<svg xmlns="http://www.w3.org/2000/svg" viewBox="0 0 212.62 32.38"><defs><style>.cls-1{fill:#727174;}</style></defs><g id="Layer_2" data-name="Layer 2"><g id="Layer_1-2" data-name="Layer 1"><path class="cls-1" d="M91.34,30,82,4.09a4.24,4.24,0,0,1-.3-1.25A2.26,2.26,0,0,1,84,.65a2.4,2.4,0,0,1,2.32,1.9l7.71,22.33,7.77-22.39A2.33,2.33,0,0,1,104.09.65h.24a2.41,2.41,0,0,1,2.37,1.84l7.71,22.39,7.83-22.45a2.25,2.25,0,0,1,2.2-1.78,2.19,2.19,0,0,1,2.25,2.14,4.25,4.25,0,0,1-.3,1.24L117,30a2.7,2.7,0,0,1-2.49,2.07h-.18A2.55,2.55,0,0,1,111.86,30L104.21,8,96.5,30A2.55,2.55,0,0,1,94,32.08h-.12A2.71,2.71,0,0,1,91.34,30"/><path class="cls-1" d="M159.2,2.91A2.31,2.31,0,0,1,161.45.59a2.28,2.28,0,0,1,2.32,2.32V8.17C166,3.06,171,.65,174.35.65A2.2,2.2,0,0,1,176.61,3a2.26,2.26,0,0,1-2,2.31c-5.94.72-10.81,5.17-10.81,14V29.72a2.29,2.29,0,1,1-4.57,0V2.91"/><path class="cls-1" d="M200.19,14.75c-.46-5.53-3.61-10.35-9.6-10.35-5.24,0-9.2,4.4-9.78,10.35Zm-8.9,17.58c-8.27,0-15-6.41-15-15.82v-.12c0-8.76,6.11-15.82,14.43-15.82,8.91,0,14,7.35,14,15.41a2.1,2.1,0,0,1-2.1,2.12H180.81c.64,6.58,5.23,10.29,10.6,10.29a12.25,12.25,0,0,0,8.67-3.53,1.94,1.94,0,0,1,1.28-.53,2,2,0,0,1,2,2,1.94,1.94,0,0,1-.7,1.46,15.23,15.23,0,0,1-11.35,4.59"/><path class="cls-1" d="M149.34,20.44v-3a32,32,0,0,0-9-1.31c-5.74,0-9,2.49-9,6.34v.12c0,3.85,3.55,6.1,7.7,6.1,5.63,0,10.25-3.44,10.25-8.29m-22.57,2.37v-.12c0-6.46,5.33-9.89,13.09-9.89a32.69,32.69,0,0,1,9.43,1.3V13c0-5.5-3.39-8.35-9.13-8.35A15.45,15.45,0,0,0,133,6.08a2.26,2.26,0,0,1-.82.18,2,2,0,0,1-2-2,1.89,1.89,0,0,1,1.25-1.9A20.3,20.3,0,0,1,140.63.66c4.32,0,7.64,1.12,9.89,3.37,2.07,2.08,3.14,5,3.14,9v16.9a2.16,2.16,0,0,1-2.2,2.25A2.09,2.09,0,0,1,149.29,30V27.07a13.44,13.44,0,0,1-11.08,5.27c-5.69,0-11.44-3.25-11.44-9.53"/><path class="cls-1" d="M8.36,2.57A4.31,4.31,0,0,0,2.57.41,4.24,4.24,0,0,0,.44,6.21l9.72,21.12c1.53,3.32,3.14,5.05,6.16,5.05,3.23,0,4.64-1.89,6.17-5.05,0,0,8.48-18.45,8.56-18.65a1.23,1.23,0,0,1,1.22-.78,1.35,1.35,0,0,1,1.35,1.36V27.32c0,2.78,1.54,5.06,4.51,5.06s4.57-2.28,4.57-5.06V12.55a4.54,4.54,0,0,1,4.82-4.7,4.42,4.42,0,0,1,4.64,4.7V27.32c0,2.78,1.55,5.06,4.51,5.06s4.58-2.28,4.58-5.06V12.55a4.54,4.54,0,0,1,4.82-4.7,4.43,4.43,0,0,1,4.63,4.7V27.32c0,2.78,1.55,5.06,4.52,5.06s4.57-2.28,4.57-5.06V10.51c0-6.18-5-10.51-11-10.51a14.05,14.05,0,0,0-9.71,4.13C57.15,1.55,54.4,0,49.77,0c-4.9,0-9.18,4.13-9.18,4.13A11,11,0,0,0,32.41,0c-4.33,0-7.78,1.91-9.88,6.71L16.32,21.35l-8-18.78"/><path class="cls-1" d="M211.89,4.38h0a3,3,0,0,0-3.06-3.09,3.08,3.08,0,0,0-3.07,3.1v0a3.07,3.07,0,1,0,6.13,0m-6.84,0v0a3.79,3.79,0,1,1,7.57,0v0a3.81,3.81,0,0,1-3.79,3.82,3.77,3.77,0,0,1-3.78-3.79"/><path class="cls-1" d="M209,4.26c.39,0,.61-.21.61-.52h0c0-.34-.23-.53-.62-.53h-.81V4.26Zm-1.63-1.38a.4.4,0,0,1,.41-.4h1.26a1.41,1.41,0,0,1,1.07.37,1.14,1.14,0,0,1,.33.84h0a1.14,1.14,0,0,1-.74,1.12l.56.68a.46.46,0,0,1,.13.31.38.38,0,0,1-.38.37.5.5,0,0,1-.4-.21l-.78-1h-.65v.8a.39.39,0,0,1-.4.4.4.4,0,0,1-.41-.4V2.88Z"/></g></g></svg>